<?xml version="1.0" encoding="UTF-8" standalone="no"?>
<!DOCTYPE svg PUBLIC "-//W3C//DTD SVG 1.1//EN" "http://www.w3.org/Graphics/SVG/1.1/DTD/svg11.dtd">
<!-- 由 Microsoft Visio, SVG Export 生成 topology2-1.svg Topology2.1 -->
<svg xmlns="http://www.w3.org/2000/svg" xmlns:xlink="http://www.w3.org/1999/xlink" xmlns:ev="http://www.w3.org/2001/xml-events"
		xmlns:v="http://schemas.microsoft.com/visio/2003/SVGExtensions/" width="5.22556in" height="4.94232in"
		viewBox="0 0 376.24 355.847" xml:space="preserve" color-interpolation-filters="sRGB" class="st20">
	<v:documentProperties v:langID="2052" v:metric="true" v:viewMarkup="false">
		<v:userDefs>
			<v:ud v:nameU="msvNoAutoConnect" v:val="VT0(1):26"/>
		</v:userDefs>
	</v:documentProperties>

	<style type="text/css">
	<![CDATA[
		.st1 {fill:#ff00ff;fill-opacity:0;stroke:#000000;stroke-linecap:round;stroke-linejoin:round;stroke-opacity:0;stroke-width:0.72}
		.st2 {fill:url(#grad12-7);stroke:#ffffff;stroke-linecap:round;stroke-linejoin:round;stroke-width:0.72}
		.st3 {fill:url(#grad0-13);stroke:#ffffff;stroke-linecap:round;stroke-linejoin:round;stroke-width:0.72}
		.st4 {fill:url(#grad11-35);stroke:#000000;stroke-linecap:round;stroke-linejoin:round;stroke-width:0.72}
		.st5 {fill:#ffffff;stroke:none;stroke-linecap:round;stroke-linejoin:round;stroke-width:0.24}
		.st6 {fill:#969696;stroke:none;stroke-linecap:round;stroke-linejoin:round;stroke-width:0.24}
		.st7 {fill:#808080;stroke:#808080;stroke-linecap:round;stroke-linejoin:round;stroke-width:0.36}
		.st8 {fill:url(#grad11-35)}
		.st9 {stroke:#000000;stroke-linecap:round;stroke-linejoin:round;stroke-width:0.72}
		.st10 {stroke:#ffffff;stroke-linecap:round;stroke-linejoin:round;stroke-width:0.72}
		.st11 {fill:none;stroke:#000000;stroke-linecap:round;stroke-linejoin:round;stroke-width:1.5}
		.st12 {fill:#000000;stroke:#000000;stroke-linecap:round;stroke-linejoin:round;stroke-width:0.12}
		.st13 {fill:#b3b3b3;fill-opacity:0.6;stroke:#000000;stroke-linecap:round;stroke-linejoin:round;stroke-width:0.24}
		.st14 {stroke:#000000;stroke-linecap:round;stroke-linejoin:round;stroke-width:0.36}
		.st15 {stroke:#ffffff;stroke-linecap:round;stroke-linejoin:round;stroke-width:0.36}
		.st16 {fill:url(#grad3-81);stroke:#000000;stroke-linecap:round;stroke-linejoin:round;stroke-width:0.12}
		.st17 {fill:url(#grad10-85);stroke:#000000;stroke-linecap:round;stroke-linejoin:round;stroke-width:0.72}
		.st18 {fill:none;stroke:none;stroke-linecap:round;stroke-linejoin:round;stroke-width:0.75}
		.st19 {fill:#000000;font-family:等线;font-size:1.99999em}
		.st20 {fill:none;fill-rule:evenodd;font-size:12px;overflow:visible;stroke-linecap:square;stroke-miterlimit:3}
	]]>
	</style>

	<defs id="Patterns_And_Gradients">
		<pattern id="grad12-7" x="0" y="0" width="1" height="1" patternContentUnits="objectBoundingBox">
			<path d="M 0 0 L 0 1 L 1 1 z" style="fill:url(#grad0-8)"/>
			<path d="M 0 0 L 1 0 L 1 1 z" style="fill:url(#grad0-9)"/>
		</pattern>
		<linearGradient id="grad0-8" x1="0" y1="0" x2="1" y2="0" gradientTransform="rotate(90 0.5 0.5)">
			<stop offset="0" stop-color="#ffffff" stop-opacity="1"/>
			<stop offset="1" stop-color="#a7a7a7" stop-opacity="1"/>
		</linearGradient>
		<linearGradient id="grad0-9" x1="0" y1="0" x2="1" y2="0" gradientTransform="rotate(360 0.5 0.5)">
			<stop offset="0" stop-color="#ffffff" stop-opacity="1"/>
			<stop offset="1" stop-color="#a7a7a7" stop-opacity="1"/>
		</linearGradient>
		<linearGradient id="grad0-13" x1="0" y1="0" x2="1" y2="0" gradientTransform="rotate(270 0.5 0.5)">
			<stop offset="0" stop-color="#ffffff" stop-opacity="1"/>
			<stop offset="1" stop-color="#dfdfdf" stop-opacity="1"/>
		</linearGradient>
		<pattern id="grad11-35" x="0" y="0" width="1" height="1" patternContentUnits="objectBoundingBox">
			<path d="M 0 1 L 0 0 L 1 0 z" style="fill:url(#grad0-36)"/>
			<path d="M 0 1 L 1 1 L 1 0 z" style="fill:url(#grad0-37)"/>
		</pattern>
		<linearGradient id="grad0-36" x1="0" y1="0" x2="1" y2="0" gradientTransform="rotate(180 0.5 0.5)">
			<stop offset="0" stop-color="#ffffff" stop-opacity="1"/>
			<stop offset="1" stop-color="#c0c0c0" stop-opacity="1"/>
		</linearGradient>
		<linearGradient id="grad0-37" x1="0" y1="0" x2="1" y2="0" gradientTransform="rotate(90 0.5 0.5)">
			<stop offset="0" stop-color="#ffffff" stop-opacity="1"/>
			<stop offset="1" stop-color="#c0c0c0" stop-opacity="1"/>
		</linearGradient>
		<radialGradient id="grad3-81" cx="0.5" cy="0.5" r="0.73">
			<stop offset="0" stop-color="#ffffff" stop-opacity="1"/>
			<stop offset="1" stop-color="#008000" stop-opacity="1"/>
		</radialGradient>
		<pattern id="grad10-85" x="0" y="0" width="1" height="1" patternContentUnits="objectBoundingBox">
			<path d="M 0.5 0.5 L 0 0 L 0 1 z" style="fill:url(#grad0-86)"/>
			<path d="M 0.5 0.5 L 1 0 L 1 1 z" style="fill:url(#grad0-87)"/>
			<path d="M 0.5 0.5 L 0 0 L 1 0 z" style="fill:url(#grad0-88)"/>
			<path d="M 0.5 0.5 L 0 1 L 1 1 z" style="fill:url(#grad0-89)"/>
		</pattern>
		<linearGradient id="grad0-86" x1="0" y1="0" x2="1" y2="0" gradientTransform="rotate(180 0.5 0.5)">
			<stop offset="0" stop-color="#ffffff" stop-opacity="1"/>
			<stop offset="1" stop-color="#c6d1e3" stop-opacity="1"/>
		</linearGradient>
		<linearGradient id="grad0-87" x1="0" y1="0" x2="1" y2="0" gradientTransform="rotate(360 0.5 0.5)">
			<stop offset="0" stop-color="#ffffff" stop-opacity="1"/>
			<stop offset="1" stop-color="#c6d1e3" stop-opacity="1"/>
		</linearGradient>
		<linearGradient id="grad0-88" x1="0" y1="0" x2="1" y2="0" gradientTransform="rotate(270 0.5 0.5)">
			<stop offset="0" stop-color="#ffffff" stop-opacity="1"/>
			<stop offset="1" stop-color="#c6d1e3" stop-opacity="1"/>
		</linearGradient>
		<linearGradient id="grad0-89" x1="0" y1="0" x2="1" y2="0" gradientTransform="rotate(90 0.5 0.5)">
			<stop offset="0" stop-color="#ffffff" stop-opacity="1"/>
			<stop offset="1" stop-color="#c6d1e3" stop-opacity="1"/>
		</linearGradient>
	</defs>
	<g v:mID="5" v:index="3" v:groupContext="foregroundPage">
		<title>Topology2.1</title>
		<v:pageProperties v:drawingScale="0.0393701" v:pageScale="0.0393701" v:drawingUnits="24" v:shadowOffsetX="8.50394"
				v:shadowOffsetY="-8.50394"/>
		<v:layer v:name="连接线" v:index="0"/>
		<g id="group1-1" transform="translate(18.75,-226.546)" v:mID="1" v:groupContext="group">
			<v:custProps>
				<v:cp v:nameU="Manufacturer" v:lbl="制造商" v:type="0" v:sortKey="Equipment" v:invis="false" v:ask="false"
						v:langID="2052"/>
				<v:cp v:nameU="ProductNumber" v:lbl="产品编号" v:type="0" v:sortKey="Equipment" v:invis="false" v:ask="false"
						v:langID="2052"/>
				<v:cp v:nameU="PartNumber" v:lbl="部件号" v:type="0" v:sortKey="Equipment" v:invis="false" v:ask="false"
						v:langID="2052"/>
				<v:cp v:nameU="ProductDescription" v:lbl="产品说明" v:type="0" v:sortKey="Equipment" v:invis="false" v:ask="false"
						v:langID="2052"/>
				<v:cp v:nameU="AssetNumber" v:lbl="资产号" v:type="0" v:sortKey="Asset" v:invis="false" v:ask="false" v:langID="2052"/>
				<v:cp v:nameU="SerialNumber" v:lbl="序列号" v:type="0" v:sortKey="Asset" v:invis="false" v:ask="false" v:langID="2052"/>
				<v:cp v:nameU="Location" v:lbl="位置" v:type="0" v:sortKey="Asset" v:invis="false" v:ask="false" v:langID="2052"/>
				<v:cp v:nameU="Building" v:lbl="建筑物" v:type="0" v:sortKey="Asset" v:invis="false" v:ask="false" v:langID="2052"/>
				<v:cp v:nameU="Room" v:lbl="房间" v:type="0" v:sortKey="Asset" v:invis="false" v:ask="false" v:langID="2052"/>
				<v:cp v:nameU="Department" v:lbl="部门" v:type="0" v:invis="false" v:ask="false" v:langID="2052"/>
				<v:cp v:nameU="NetworkName" v:lbl="网络名称" v:type="0" v:sortKey="Network" v:invis="false" v:ask="false"
						v:langID="2052"/>
				<v:cp v:nameU="IPAddress" v:lbl="IP 地址" v:type="0" v:sortKey="Network" v:invis="false" v:ask="false"
						v:langID="2052"/>
				<v:cp v:nameU="SubnetMask" v:lbl="子网掩码" v:type="0" v:sortKey="Network" v:invis="false" v:ask="false"
						v:langID="2052"/>
				<v:cp v:nameU="AdminInterface" v:lbl="管理接口" v:type="0" v:sortKey="Network" v:invis="false" v:ask="false"
						v:langID="2052"/>
				<v:cp v:nameU="NumberofPorts" v:lbl="端口数目" v:type="0" v:sortKey="Network" v:invis="false" v:ask="false"
						v:langID="2052"/>
				<v:cp v:nameU="CommunityString" v:lbl="团体字符串" v:type="0" v:sortKey="Network" v:invis="false" v:ask="false"
						v:langID="2052"/>
				<v:cp v:nameU="NetworkDescription" v:lbl="网络说明" v:type="0" v:sortKey="Network" v:invis="false" v:ask="false"
						v:langID="2052"/>
				<v:cp v:nameU="CPU" v:lbl="CPU" v:type="0" v:sortKey="Workstation" v:invis="false" v:ask="false" v:langID="2052"/>
				<v:cp v:nameU="Memory" v:lbl="内存" v:type="0" v:sortKey="Workstation" v:invis="false" v:ask="false" v:langID="2052"/>
				<v:cp v:nameU="OperatingSystem" v:lbl="操作系统" v:type="0" v:sortKey="Workstation" v:invis="false" v:ask="false"
						v:langID="2052"/>
				<v:cp v:nameU="BelongsTo" v:lbl="属于" v:type="0" v:invis="true" v:ask="false" v:langID="2052"/>
				<v:cp v:nameU="ShapeClass" v:lbl="ShapeClass" v:type="0" v:invis="true" v:ask="false" v:langID="2052"
						v:val="VT4(设备)"/>
				<v:cp v:nameU="ShapeType" v:lbl="ShapeType" v:type="0" v:invis="true" v:ask="false" v:langID="2052"
						v:val="VT4(计算机)"/>
				<v:cp v:nameU="SubShapeType" v:lbl="SubShapeType" v:type="0" v:invis="true" v:ask="false" v:langID="2052"
						v:val="VT4(桌面)"/>
				<v:cp v:nameU="MACAddress" v:lbl="MAC 地址" v:type="0" v:sortKey="Network" v:invis="false" v:ask="false"
						v:langID="2052"/>
				<v:cp v:nameU="HardDriveSize" v:lbl="硬盘容量" v:type="0" v:sortKey="Workstation" v:invis="false" v:ask="false"
						v:langID="2052"/>
			</v:custProps>
			<v:userDefs>
				<v:ud v:nameU="HasText" v:val="VT0(0):5"/>
				<v:ud v:nameU="ShapeClass" v:val="VT0(5):26"/>
				<v:ud v:nameU="ShapeType" v:val="VT0(6):26"/>
				<v:ud v:nameU="SubShapeType" v:val="VT0(17):26"/>
				<v:ud v:nameU="SolSH" v:val="VT15({BF0433D9-CD73-4EB5-8390-8653BE590246}):41"/>
				<v:ud v:nameU="visLegendShape" v:val="VT0(2):26"/>
				<v:ud v:nameU="visVersion" v:prompt="" v:val="VT0(15):26"/>
			</v:userDefs>
			<title>PC</title>
			<g id="shape2-2" v:mID="2" v:groupContext="shape">
				<title>工作表.2</title>
				<path d="M97.67 286.35 L97.67 262.58 L70.48 246.74 L57.96 250.34 L49.37 245.3 L39.35 249.26 L39.35 286.84 L29.87
							 292.47 L29.87 309.75 A96.195 96.8216 -180 0 0 71.55 333.88 L110.55 311.19 L110.55 293.91 L97.67 286.35
							 ZM0 326.32 L0 331.36 L42.22 355.85 L61.89 344.32 L61.89 337.84 L18.96 312.99 L0 326.32 Z" class="st1"/>
			</g>
			<g id="shape3-4" v:mID="3" v:groupContext="shape" transform="translate(42.217,-1.13687E-13)">
				<title>工作表.3</title>
				<path d="M0 355.85 L0 350.85 L19.68 337.84 L19.68 344.32 L0 355.85 Z" class="st2"/>
			</g>
			<g id="shape4-10" v:mID="4" v:groupContext="shape" transform="translate(5.47562E-13,-4.99557)">
				<title>工作表.4</title>
				<path d="M0 331.31 L18.96 317.99 L61.89 342.84 L42.22 355.85 L0 331.31 Z" class="st3"/>
			</g>
			<g id="shape5-14" v:mID="5" v:groupContext="shape" transform="translate(29.8739,-39.2759)">
				<title>工作表.5</title>
				<path d="M41.68 355.85 L80.68 333.19 L38.82 308.7 L0 331.75 A98.3682 99.009 -180 0 0 41.68 355.85 Z" class="st3"/>
			</g>
			<g id="shape6-17" v:mID="6" v:groupContext="shape" transform="translate(74.4163,-46.093)">
				<title>工作表.6</title>
				<path d="M0 355.85 L0 315.52 L8.19 310.72 L7.87 349.01 L0 355.85 Z" class="st2"/>
			</g>
			<g id="shape7-20" v:mID="7" v:groupContext="shape" transform="translate(82.2873,-56.896)">
				<title>工作表.7</title>
				<path d="M0.29 325.3 L15.38 319.48 L15.38 343.24 L0 355.85 L0.29 325.3 Z" class="st2"/>
			</g>
			<g id="shape8-23" v:mID="8" v:groupContext="shape" transform="translate(57.9589,-87.4479)">
				<title>工作表.8</title>
				<path d="M24.62 355.85 L24.65 352.07 L0 337.79 L12.52 334.18 L39.71 350.03 L24.62 355.85 Z" class="st3"/>
			</g>
			<g id="shape9-26" v:mID="9" v:groupContext="shape" transform="translate(71.5542,-21.9662)">
				<title>工作表.9</title>
				<path d="M0 338.54 L39 315.88 L39 333.16 L0 355.85 L0 338.54 Z" class="st2"/>
			</g>
			<g id="shape10-29" v:mID="10" v:groupContext="shape" transform="translate(39.3548,-86.4244)">
				<title>工作表.10</title>
				<path d="M0 335.68 L10.02 331.72 L18.63 336.77 L43.25 351.07 L35.06 355.85 A98.1769 98.8165 0 0 1 0 335.68 Z"
						class="st3"/>
			</g>
			<g id="shape11-32" v:mID="11" v:groupContext="shape">
				<title>工作表.11</title>
				<path d="M0 326.32 L42.22 350.85 L42.22 355.85 L0 331.36 L0 326.32 Z" class="st4"/>
			</g>
			<g id="group12-38" transform="translate(4.59758,-7.56317)" v:mID="12" v:groupContext="group">
				<title>工作表.12</title>
				<g id="shape13-39" v:mID="13" v:groupContext="shape" transform="translate(0,-0.737104)">
					<title>工作表.13</title>
					<path d="M0 333.22 L3.09 335.06 L5.67 333.37 L2.58 331.53 L0 333.22 ZM3.83 330.64 L6.93 332.48 L9.51 330.79 L6.41
								 328.95 L3.83 330.64 ZM7.67 328.06 L10.76 329.9 L13.34 328.21 L10.24 326.37 L7.67 328.06 ZM11.5 325.48
								 L14.59 327.32 L17.17 325.63 L14.08 323.79 L11.5 325.48 ZM17.25 328.95 L20.34 330.79 L22.92 329.09
								 L19.83 327.25 L17.25 328.95 ZM23 332.41 L26.09 334.25 L28.67 332.56 L25.57 330.71 L23 332.41 ZM28.74
								 335.87 L31.84 337.72 L34.42 336.02 L31.32 334.18 L28.74 335.87 ZM40.24 342.8 L43.34 344.64 L45.92
								 342.95 L42.82 341.11 L40.24 342.8 ZM45.99 346.27 L49.08 348.11 L51.66 346.41 L48.57 344.57 L45.99
								 346.27 ZM42.16 348.85 L45.25 350.69 L47.83 348.99 L44.74 347.15 L42.16 348.85 ZM36.41 345.38 L39.5
								 347.22 L42.08 345.53 L38.99 343.69 L36.41 345.38 ZM34.49 339.34 L37.59 341.18 L40.17 339.48 L37.07
								 337.64 L34.49 339.34 ZM30.66 341.92 L33.75 343.76 L36.33 342.06 L33.24 340.22 L30.66 341.92 ZM24.91
								 338.45 L28.01 340.3 L30.59 338.6 L27.49 336.76 L24.91 338.45 ZM19.16 334.99 L22.26 336.83 L24.84
								 335.14 L21.74 333.29 L19.16 334.99 ZM13.41 331.53 L16.51 333.37 L19.09 331.67 L15.99 329.83 L13.41
								 331.53 ZM9.58 334.11 L12.68 335.95 L15.26 334.25 L12.16 332.41 L9.58 334.11 ZM15.33 337.57 L18.42
								 339.41 L21 337.72 L17.91 335.87 L15.33 337.57 ZM21.08 341.03 L24.17 342.88 L26.75 341.18 L23.66
								 339.34 L21.08 341.03 ZM26.83 344.5 L29.92 346.34 L32.5 344.64 L29.41 342.8 L26.83 344.5 ZM32.58
								 347.96 L35.67 349.8 L38.25 348.11 L35.16 346.27 L32.58 347.96 ZM38.32 351.43 L41.42 353.27 L44 351.57
								 L40.9 349.73 L38.32 351.43 ZM34.49 354.01 L37.59 355.85 L40.17 354.15 L37.07 352.31 L34.49 354.01
								 ZM28.74 350.54 L31.84 352.38 L34.42 350.69 L31.32 348.85 L28.74 350.54 ZM11.5 340.15 L26.09 348.92
								 L28.67 347.22 L14.08 338.45 L11.5 340.15 ZM5.75 336.69 L8.84 338.53 L11.42 336.83 L8.33 334.99 L5.75
								 336.69 Z" class="st5"/>
				</g>
				<g id="shape14-41" v:mID="14" v:groupContext="shape" transform="translate(0.00121587,2.27374E-13)">
					<title>工作表.14</title>
					<path d="M11.5 325.48 L14.59 327.32 L14.59 326.59 L11.5 324.74 L11.5 325.48 ZM17.25 328.95 L20.34 330.79 L20.34
								 330.05 L17.25 328.21 L17.25 328.95 ZM23 332.41 L26.09 334.25 L26.09 333.51 L23 331.67 L23 332.41
								 ZM28.74 335.87 L31.84 337.72 L31.84 336.98 L28.74 335.13 L28.74 335.87 ZM34.49 339.34 L37.59 341.18
								 L37.59 340.44 L34.49 338.6 L34.49 339.34 ZM40.24 342.8 L43.34 344.64 L43.34 343.91 L40.24 342.06
								 L40.24 342.8 ZM14.59 326.58 L14.59 327.32 L17.17 325.63 L17.17 324.89 L14.59 326.58 ZM20.34 330.05
								 L20.34 330.79 L22.92 329.09 L22.92 328.35 L20.34 330.05 ZM26.09 333.51 L26.09 334.25 L28.67 332.56
								 L28.67 331.82 L26.09 333.51 ZM31.84 336.98 L31.84 337.71 L34.42 336.02 L34.42 335.28 L31.84 336.98
								 ZM37.59 340.44 L37.59 341.18 L40.17 339.48 L40.17 338.75 L37.59 340.44 ZM43.34 343.91 L43.34 344.64
								 L45.91 342.95 L45.91 342.21 L43.34 343.91 ZM45.99 346.26 L49.08 348.11 L49.08 347.37 L45.99 345.53
								 L45.99 346.26 ZM49.08 347.37 L49.08 348.11 L51.66 346.41 L51.66 345.68 L49.08 347.37 ZM7.67 328.06
								 L10.76 329.9 L10.76 329.17 L7.67 327.32 L7.67 328.06 ZM13.41 331.53 L16.51 333.37 L16.51 332.63
								 L13.41 330.79 L13.41 331.53 ZM19.16 334.99 L22.26 336.83 L22.26 336.09 L19.16 334.25 L19.16 334.99
								 ZM24.91 338.45 L28.01 340.3 L28.01 339.56 L24.91 337.71 L24.91 338.45 ZM30.66 341.92 L33.75 343.76
								 L33.75 343.02 L30.66 341.18 L30.66 341.92 ZM36.41 345.38 L39.5 347.22 L39.5 346.49 L36.41 344.64
								 L36.41 345.38 ZM10.76 329.16 L10.76 329.9 L13.34 328.21 L13.34 327.47 L10.76 329.16 ZM16.51 332.63
								 L16.51 333.37 L19.09 331.67 L19.09 330.93 L16.51 332.63 ZM22.26 336.09 L22.26 336.83 L24.84 335.14
								 L24.84 334.4 L22.26 336.09 ZM28.01 339.56 L28.01 340.29 L30.58 338.6 L30.58 337.86 L28.01 339.56
								 ZM33.75 343.02 L33.75 343.76 L36.33 342.06 L36.33 341.33 L33.75 343.02 ZM39.5 346.49 L39.5 347.22
								 L42.08 345.53 L42.08 344.79 L39.5 346.49 ZM42.16 348.84 L45.25 350.69 L45.25 349.95 L42.16 348.11
								 L42.16 348.84 ZM45.25 349.95 L45.25 350.69 L47.83 348.99 L47.83 348.26 L45.25 349.95 ZM3.83 330.64
								 L6.93 332.48 L6.93 331.75 L3.83 329.9 L3.83 330.64 ZM9.58 334.11 L12.68 335.95 L12.68 335.21 L9.58
								 333.37 L9.58 334.11 ZM15.33 337.57 L18.43 339.41 L18.42 338.67 L15.33 336.83 L15.33 337.57 ZM21.08
								 341.03 L24.17 342.88 L24.17 342.14 L21.08 340.29 L21.08 341.03 ZM26.83 344.5 L29.92 346.34 L29.92
								 345.6 L26.83 343.76 L26.83 344.5 ZM32.57 347.96 L35.67 349.8 L35.67 349.07 L32.57 347.22 L32.57
								 347.96 ZM6.93 331.74 L6.93 332.48 L9.51 330.79 L9.51 330.05 L6.93 331.74 ZM12.68 335.21 L12.68 335.95
								 L15.25 334.25 L15.25 333.51 L12.68 335.21 ZM18.42 338.67 L18.42 339.41 L21 337.72 L21 336.98 L18.42
								 338.67 ZM24.17 342.14 L24.17 342.87 L26.75 341.18 L26.75 340.44 L24.17 342.14 ZM29.92 345.6 L29.92
								 346.34 L32.5 344.64 L32.5 343.91 L29.92 345.6 ZM35.67 349.07 L35.67 349.8 L38.25 348.11 L38.25 347.37
								 L35.67 349.07 ZM38.32 351.42 L41.42 353.27 L41.42 352.53 L38.32 350.69 L38.32 351.42 ZM41.42 352.53
								 L41.42 353.27 L44 351.57 L44 350.84 L41.42 352.53 ZM0 333.22 L3.1 335.06 L3.1 334.33 L0 332.48 L0
								 333.22 ZM5.75 336.69 L8.84 338.53 L8.84 337.79 L5.75 335.95 L5.75 336.69 ZM11.5 340.15 L26.09 348.92
								 L26.09 348.18 L11.5 339.41 L11.5 340.15 ZM28.74 350.54 L31.84 352.38 L31.84 351.65 L28.74 349.8
								 L28.74 350.54 ZM3.09 334.32 L3.09 335.06 L5.67 333.37 L5.67 332.63 L3.09 334.32 ZM8.84 337.79 L8.84
								 338.53 L11.42 336.83 L11.42 336.09 L8.84 337.79 ZM26.09 348.18 L26.09 348.92 L28.67 347.22 L28.67
								 346.49 L26.09 348.18 ZM31.84 351.65 L31.84 352.38 L34.42 350.69 L34.42 349.95 L31.84 351.65 ZM34.49
								 354 L37.59 355.85 L37.59 355.11 L34.49 353.27 L34.49 354 ZM37.59 355.11 L37.59 355.85 L40.16 354.15
								 L40.17 353.42 L37.59 355.11 Z" class="st6"/>
				</g>
			</g>
			<g id="shape15-43" v:mID="15" v:groupContext="shape" transform="translate(101.444,-44.4545)">
				<title>工作表.15</title>
				<path d="M2.67 345.21 L4.9 343.8 L4.9 353 L2.67 354.41 L2.67 345.21 ZM0 346.65 L1.24 345.93 L1.24 355.13 L0 355.85
							 L0 346.65 Z" class="st7"/>
			</g>
			<g id="shape16-45" v:mID="16" v:groupContext="shape" transform="translate(29.8739,-21.9662)">
				<title>工作表.16</title>
				<path d="M44.54 331.72 A79.7046 80.2238 0 0 1 9.48 311.91 L9.48 271.22 A96.5992 97.2285 -180 0 0 44.54 291.39 L44.54
							 331.72 ZM0 331.72 A96.195 96.8216 -180 0 0 41.68 355.85 L41.68 338.54 A96.8002 97.4308 0 0 1 0 314.44
							 L0 331.72 Z" class="st8"/>
				<path d="M44.54 331.72 A79.7046 80.2238 0 0 1 9.48 311.91 L9.48 271.22 A96.5992 97.2285 -180 0 0 44.54 291.39 L44.54
							 331.72" class="st9"/>
				<path d="M3.04 321.64 A57.2169 56.8466 -90 0 0 12.34 329.2" class="st9"/>
				<path d="M3.04 324.16 A57.2169 56.8466 -90 0 0 12.34 331.72" class="st9"/>
				<path d="M3.04 326.68 A57.2169 56.8466 -90 0 0 12.34 334.24" class="st9"/>
				<path d="M3.04 329.2 A57.2169 56.8466 -90 0 0 12.34 336.76" class="st9"/>
				<path d="M36.67 275.34 L53.13 284.91" class="st9"/>
				<path d="M38.82 274.75 L55.28 284.31" class="st9"/>
				<path d="M40.96 274.15 L57.42 283.71" class="st9"/>
				<path d="M43.11 273.55 L59.57 283.11" class="st9"/>
				<path d="M0 331.72 A96.195 96.8216 -180 0 0 41.68 355.85 L41.68 338.54 A96.8002 97.4308 0 0 1 0 314.44 L0 331.72"
						class="st9"/>
			</g>
			<g id="shape17-58" v:mID="17" v:groupContext="shape" transform="translate(43.648,-53.359)">
				<title>工作表.17</title>
				<path d="M0 311.62 L0 340.79 A82.4287 81.8952 -90.11 0 0 25.4 355.85" class="st10"/>
			</g>
			<g id="shape18-62" v:mID="18" v:groupContext="shape">
				<title>工作表.18</title>
				<path d="M71.55 333.88 L110.55 311.19 L110.55 293.91 L97.67 286.35 L97.67 262.58 L70.48 246.74 L57.96 250.34 L49.37
							 245.3 L39.35 249.26 L39.35 287.07 L29.87 292.47 L29.87 309.75 A98.4889 97.8515 -90 0 0 71.55 333.88
							 ZM0 326.32 L18.96 312.99 L61.89 337.84 L61.89 344.32 L42.22 355.85 L0 331.36 L0 326.32 Z" class="st11"/>
			</g>
			<g id="group19-64" transform="translate(51.8768,-28.0879)" v:mID="19" v:groupContext="group">
				<title>工作表.19</title>
				<g id="shape20-65" v:mID="20" v:groupContext="shape" transform="translate(3.46742,0)">
					<title>工作表.20</title>
					<path d="M1.18 348.28 L13.35 353.15 A1.41027 1.41946 0 0 1 12.99 355.85 L1.18 351.17 A1.45696 1.46645 0 0 1 1.18
								 348.28 Z" class="st12"/>
				</g>
				<g id="shape21-67" v:mID="21" v:groupContext="shape" transform="translate(9.29257E-14,-5.04142)">
					<title>工作表.21</title>
					<path d="M0 345.04 L17.53 352.25 L17.53 355.85 L0 349.01 L0 345.04 Z" class="st13"/>
				</g>
				<g id="shape22-69" v:mID="22" v:groupContext="shape" transform="translate(9.29257E-14,-5.04142)">
					<title>工作表.22</title>
					<path d="M0 345.04 L17.53 352.25 L17.53 355.85" class="st14"/>
				</g>
				<g id="shape23-72" v:mID="23" v:groupContext="shape" transform="translate(9.29257E-14,-7.20203)">
					<title>工作表.23</title>
					<path d="M0 348.65 L17.53 355.85" class="st14"/>
				</g>
				<g id="shape24-75" v:mID="24" v:groupContext="shape" transform="translate(-8.69305E-14,-5.04142)">
					<title>工作表.24</title>
					<path d="M0 345.04 L0 349.01 L17.53 355.85" class="st15"/>
				</g>
			</g>
			<g id="shape25-78" v:mID="25" v:groupContext="shape" transform="translate(-112.611,-1.87526) rotate(-30)">
				<title>工作表.25</title>
				<ellipse cx="1.19979" cy="354.242" rx="1.19979" ry="1.60493" class="st16"/>
			</g>
			<g id="shape26-82" v:mID="26" v:groupContext="shape" transform="translate(43.648,-53.359)">
				<title>工作表.26</title>
				<path d="M1.08 340.11 L1.08 312.69 L0 311.62 A62.1728 61.7704 -90.48 0 0 25.4 326.74 L25.4 355.85 L25.4 354.55 A78.5389
							 78.0306 91.46 0 1 1.08 340.11 Z" class="st17"/>
			</g>
		</g>
		<g id="group27-90" transform="translate(246.939,-226.546)" v:mID="27" v:groupContext="group">
			<v:custProps>
				<v:cp v:nameU="Manufacturer" v:lbl="制造商" v:type="0" v:sortKey="Equipment" v:invis="false" v:ask="false"
						v:langID="2052"/>
				<v:cp v:nameU="ProductNumber" v:lbl="产品编号" v:type="0" v:sortKey="Equipment" v:invis="false" v:ask="false"
						v:langID="2052"/>
				<v:cp v:nameU="PartNumber" v:lbl="部件号" v:type="0" v:sortKey="Equipment" v:invis="false" v:ask="false"
						v:langID="2052"/>
				<v:cp v:nameU="ProductDescription" v:lbl="产品说明" v:type="0" v:sortKey="Equipment" v:invis="false" v:ask="false"
						v:langID="2052"/>
				<v:cp v:nameU="AssetNumber" v:lbl="资产号" v:type="0" v:sortKey="Asset" v:invis="false" v:ask="false" v:langID="2052"/>
				<v:cp v:nameU="SerialNumber" v:lbl="序列号" v:type="0" v:sortKey="Asset" v:invis="false" v:ask="false" v:langID="2052"/>
				<v:cp v:nameU="Location" v:lbl="位置" v:type="0" v:sortKey="Asset" v:invis="false" v:ask="false" v:langID="2052"/>
				<v:cp v:nameU="Building" v:lbl="建筑物" v:type="0" v:sortKey="Asset" v:invis="false" v:ask="false" v:langID="2052"/>
				<v:cp v:nameU="Room" v:lbl="房间" v:type="0" v:sortKey="Asset" v:invis="false" v:ask="false" v:langID="2052"/>
				<v:cp v:nameU="Department" v:lbl="部门" v:type="0" v:invis="false" v:ask="false" v:langID="2052"/>
				<v:cp v:nameU="NetworkName" v:lbl="网络名称" v:type="0" v:sortKey="Network" v:invis="false" v:ask="false"
						v:langID="2052"/>
				<v:cp v:nameU="IPAddress" v:lbl="IP 地址" v:type="0" v:sortKey="Network" v:invis="false" v:ask="false"
						v:langID="2052"/>
				<v:cp v:nameU="SubnetMask" v:lbl="子网掩码" v:type="0" v:sortKey="Network" v:invis="false" v:ask="false"
						v:langID="2052"/>
				<v:cp v:nameU="AdminInterface" v:lbl="管理接口" v:type="0" v:sortKey="Network" v:invis="false" v:ask="false"
						v:langID="2052"/>
				<v:cp v:nameU="NumberofPorts" v:lbl="端口数目" v:type="0" v:sortKey="Network" v:invis="false" v:ask="false"
						v:langID="2052"/>
				<v:cp v:nameU="CommunityString" v:lbl="团体字符串" v:type="0" v:sortKey="Network" v:invis="false" v:ask="false"
						v:langID="2052"/>
				<v:cp v:nameU="NetworkDescription" v:lbl="网络说明" v:type="0" v:sortKey="Network" v:invis="false" v:ask="false"
						v:langID="2052"/>
				<v:cp v:nameU="CPU" v:lbl="CPU" v:type="0" v:sortKey="Workstation" v:invis="false" v:ask="false" v:langID="2052"/>
				<v:cp v:nameU="Memory" v:lbl="内存" v:type="0" v:sortKey="Workstation" v:invis="false" v:ask="false" v:langID="2052"/>
				<v:cp v:nameU="OperatingSystem" v:lbl="操作系统" v:type="0" v:sortKey="Workstation" v:invis="false" v:ask="false"
						v:langID="2052"/>
				<v:cp v:nameU="BelongsTo" v:lbl="属于" v:type="0" v:invis="true" v:ask="false" v:langID="2052"/>
				<v:cp v:nameU="ShapeClass" v:lbl="ShapeClass" v:type="0" v:invis="true" v:ask="false" v:langID="2052"
						v:val="VT4(设备)"/>
				<v:cp v:nameU="ShapeType" v:lbl="ShapeType" v:type="0" v:invis="true" v:ask="false" v:langID="2052"
						v:val="VT4(计算机)"/>
				<v:cp v:nameU="SubShapeType" v:lbl="SubShapeType" v:type="0" v:invis="true" v:ask="false" v:langID="2052"
						v:val="VT4(桌面)"/>
				<v:cp v:nameU="MACAddress" v:lbl="MAC 地址" v:type="0" v:sortKey="Network" v:invis="false" v:ask="false"
						v:langID="2052"/>
				<v:cp v:nameU="HardDriveSize" v:lbl="硬盘容量" v:type="0" v:sortKey="Workstation" v:invis="false" v:ask="false"
						v:langID="2052"/>
			</v:custProps>
			<v:userDefs>
				<v:ud v:nameU="HasText" v:val="VT0(0):5"/>
				<v:ud v:nameU="ShapeClass" v:val="VT0(5):26"/>
				<v:ud v:nameU="ShapeType" v:val="VT0(6):26"/>
				<v:ud v:nameU="SubShapeType" v:val="VT0(17):26"/>
				<v:ud v:nameU="SolSH" v:val="VT15({BF0433D9-CD73-4EB5-8390-8653BE590246}):41"/>
				<v:ud v:nameU="visLegendShape" v:val="VT0(2):26"/>
				<v:ud v:nameU="visVersion" v:prompt="" v:val="VT0(15):26"/>
			</v:userDefs>
			<title>PC.27</title>
			<g id="shape28-91" v:mID="28" v:groupContext="shape">
				<title>工作表.28</title>
				<path d="M97.67 286.35 L97.67 262.58 L70.48 246.74 L57.96 250.34 L49.37 245.3 L39.35 249.26 L39.35 286.84 L29.87
							 292.47 L29.87 309.75 A96.195 96.8216 -180 0 0 71.55 333.88 L110.55 311.19 L110.55 293.91 L97.67 286.35
							 ZM0 326.32 L0 331.36 L42.22 355.85 L61.89 344.32 L61.89 337.84 L18.96 312.99 L0 326.32 Z" class="st1"/>
			</g>
			<g id="shape29-93" v:mID="29" v:groupContext="shape" transform="translate(42.217,-1.13687E-13)">
				<title>工作表.29</title>
				<path d="M0 355.85 L0 350.85 L19.68 337.84 L19.68 344.32 L0 355.85 Z" class="st2"/>
			</g>
			<g id="shape30-96" v:mID="30" v:groupContext="shape" transform="translate(5.47562E-13,-4.99557)">
				<title>工作表.30</title>
				<path d="M0 331.31 L18.96 317.99 L61.89 342.84 L42.22 355.85 L0 331.31 Z" class="st3"/>
			</g>
			<g id="shape31-99" v:mID="31" v:groupContext="shape" transform="translate(29.8739,-39.2759)">
				<title>工作表.31</title>
				<path d="M41.68 355.85 L80.68 333.19 L38.82 308.7 L0 331.75 A98.3682 99.009 -180 0 0 41.68 355.85 Z" class="st3"/>
			</g>
			<g id="shape32-102" v:mID="32" v:groupContext="shape" transform="translate(74.4163,-46.093)">
				<title>工作表.32</title>
				<path d="M0 355.85 L0 315.52 L8.19 310.72 L7.87 349.01 L0 355.85 Z" class="st2"/>
			</g>
			<g id="shape33-105" v:mID="33" v:groupContext="shape" transform="translate(82.2873,-56.896)">
				<title>工作表.33</title>
				<path d="M0.29 325.3 L15.38 319.48 L15.38 343.24 L0 355.85 L0.29 325.3 Z" class="st2"/>
			</g>
			<g id="shape34-108" v:mID="34" v:groupContext="shape" transform="translate(57.9589,-87.4479)">
				<title>工作表.34</title>
				<path d="M24.62 355.85 L24.65 352.07 L0 337.79 L12.52 334.18 L39.71 350.03 L24.62 355.85 Z" class="st3"/>
			</g>
			<g id="shape35-111" v:mID="35" v:groupContext="shape" transform="translate(71.5542,-21.9662)">
				<title>工作表.35</title>
				<path d="M0 338.54 L39 315.88 L39 333.16 L0 355.85 L0 338.54 Z" class="st2"/>
			</g>
			<g id="shape36-114" v:mID="36" v:groupContext="shape" transform="translate(39.3548,-86.4244)">
				<title>工作表.36</title>
				<path d="M0 335.68 L10.02 331.72 L18.63 336.77 L43.25 351.07 L35.06 355.85 A98.1769 98.8165 0 0 1 0 335.68 Z"
						class="st3"/>
			</g>
			<g id="shape37-117" v:mID="37" v:groupContext="shape">
				<title>工作表.37</title>
				<path d="M0 326.32 L42.22 350.85 L42.22 355.85 L0 331.36 L0 326.32 Z" class="st4"/>
			</g>
			<g id="group38-120" transform="translate(4.59758,-7.56317)" v:mID="38" v:groupContext="group">
				<title>工作表.38</title>
				<g id="shape39-121" v:mID="39" v:groupContext="shape" transform="translate(0,-0.737104)">
					<title>工作表.39</title>
					<path d="M0 333.22 L3.09 335.06 L5.67 333.37 L2.58 331.53 L0 333.22 ZM3.83 330.64 L6.93 332.48 L9.51 330.79 L6.41
								 328.95 L3.83 330.64 ZM7.67 328.06 L10.76 329.9 L13.34 328.21 L10.24 326.37 L7.67 328.06 ZM11.5 325.48
								 L14.59 327.32 L17.17 325.63 L14.08 323.79 L11.5 325.48 ZM17.25 328.95 L20.34 330.79 L22.92 329.09
								 L19.83 327.25 L17.25 328.95 ZM23 332.41 L26.09 334.25 L28.67 332.56 L25.57 330.71 L23 332.41 ZM28.74
								 335.87 L31.84 337.72 L34.42 336.02 L31.32 334.18 L28.74 335.87 ZM40.24 342.8 L43.34 344.64 L45.92
								 342.95 L42.82 341.11 L40.24 342.8 ZM45.99 346.27 L49.08 348.11 L51.66 346.41 L48.57 344.57 L45.99
								 346.27 ZM42.16 348.85 L45.25 350.69 L47.83 348.99 L44.74 347.15 L42.16 348.85 ZM36.41 345.38 L39.5
								 347.22 L42.08 345.53 L38.99 343.69 L36.41 345.38 ZM34.49 339.34 L37.59 341.18 L40.17 339.48 L37.07
								 337.64 L34.49 339.34 ZM30.66 341.92 L33.75 343.76 L36.33 342.06 L33.24 340.22 L30.66 341.92 ZM24.91
								 338.45 L28.01 340.3 L30.59 338.6 L27.49 336.76 L24.91 338.45 ZM19.16 334.99 L22.26 336.83 L24.84
								 335.14 L21.74 333.29 L19.16 334.99 ZM13.41 331.53 L16.51 333.37 L19.09 331.67 L15.99 329.83 L13.41
								 331.53 ZM9.58 334.11 L12.68 335.95 L15.26 334.25 L12.16 332.41 L9.58 334.11 ZM15.33 337.57 L18.42
								 339.41 L21 337.72 L17.91 335.87 L15.33 337.57 ZM21.08 341.03 L24.17 342.88 L26.75 341.18 L23.66
								 339.34 L21.08 341.03 ZM26.83 344.5 L29.92 346.34 L32.5 344.64 L29.41 342.8 L26.83 344.5 ZM32.58
								 347.96 L35.67 349.8 L38.25 348.11 L35.16 346.27 L32.58 347.96 ZM38.32 351.43 L41.42 353.27 L44 351.57
								 L40.9 349.73 L38.32 351.43 ZM34.49 354.01 L37.59 355.85 L40.17 354.15 L37.07 352.31 L34.49 354.01
								 ZM28.74 350.54 L31.84 352.38 L34.42 350.69 L31.32 348.85 L28.74 350.54 ZM11.5 340.15 L26.09 348.92
								 L28.67 347.22 L14.08 338.45 L11.5 340.15 ZM5.75 336.69 L8.84 338.53 L11.42 336.83 L8.33 334.99 L5.75
								 336.69 Z" class="st5"/>
				</g>
				<g id="shape40-123" v:mID="40" v:groupContext="shape" transform="translate(0.00121587,2.27374E-13)">
					<title>工作表.40</title>
					<path d="M11.5 325.48 L14.59 327.32 L14.59 326.59 L11.5 324.74 L11.5 325.48 ZM17.25 328.95 L20.34 330.79 L20.34
								 330.05 L17.25 328.21 L17.25 328.95 ZM23 332.41 L26.09 334.25 L26.09 333.51 L23 331.67 L23 332.41
								 ZM28.74 335.87 L31.84 337.72 L31.84 336.98 L28.74 335.13 L28.74 335.87 ZM34.49 339.34 L37.59 341.18
								 L37.59 340.44 L34.49 338.6 L34.49 339.34 ZM40.24 342.8 L43.34 344.64 L43.34 343.91 L40.24 342.06
								 L40.24 342.8 ZM14.59 326.58 L14.59 327.32 L17.17 325.63 L17.17 324.89 L14.59 326.58 ZM20.34 330.05
								 L20.34 330.79 L22.92 329.09 L22.92 328.35 L20.34 330.05 ZM26.09 333.51 L26.09 334.25 L28.67 332.56
								 L28.67 331.82 L26.09 333.51 ZM31.84 336.98 L31.84 337.71 L34.42 336.02 L34.42 335.28 L31.84 336.98
								 ZM37.59 340.44 L37.59 341.18 L40.17 339.48 L40.17 338.75 L37.59 340.44 ZM43.34 343.91 L43.34 344.64
								 L45.91 342.95 L45.91 342.21 L43.34 343.91 ZM45.99 346.26 L49.08 348.11 L49.08 347.37 L45.99 345.53
								 L45.99 346.26 ZM49.08 347.37 L49.08 348.11 L51.66 346.41 L51.66 345.68 L49.08 347.37 ZM7.67 328.06
								 L10.76 329.9 L10.76 329.17 L7.67 327.32 L7.67 328.06 ZM13.41 331.53 L16.51 333.37 L16.51 332.63
								 L13.41 330.79 L13.41 331.53 ZM19.16 334.99 L22.26 336.83 L22.26 336.09 L19.16 334.25 L19.16 334.99
								 ZM24.91 338.45 L28.01 340.3 L28.01 339.56 L24.91 337.71 L24.91 338.45 ZM30.66 341.92 L33.75 343.76
								 L33.75 343.02 L30.66 341.18 L30.66 341.92 ZM36.41 345.38 L39.5 347.22 L39.5 346.49 L36.41 344.64
								 L36.41 345.38 ZM10.76 329.16 L10.76 329.9 L13.34 328.21 L13.34 327.47 L10.76 329.16 ZM16.51 332.63
								 L16.51 333.37 L19.09 331.67 L19.09 330.93 L16.51 332.63 ZM22.26 336.09 L22.26 336.83 L24.84 335.14
								 L24.84 334.4 L22.26 336.09 ZM28.01 339.56 L28.01 340.29 L30.58 338.6 L30.58 337.86 L28.01 339.56
								 ZM33.75 343.02 L33.75 343.76 L36.33 342.06 L36.33 341.33 L33.75 343.02 ZM39.5 346.49 L39.5 347.22
								 L42.08 345.53 L42.08 344.79 L39.5 346.49 ZM42.16 348.84 L45.25 350.69 L45.25 349.95 L42.16 348.11
								 L42.16 348.84 ZM45.25 349.95 L45.25 350.69 L47.83 348.99 L47.83 348.26 L45.25 349.95 ZM3.83 330.64
								 L6.93 332.48 L6.93 331.75 L3.83 329.9 L3.83 330.64 ZM9.58 334.11 L12.68 335.95 L12.68 335.21 L9.58
								 333.37 L9.58 334.11 ZM15.33 337.57 L18.43 339.41 L18.42 338.67 L15.33 336.83 L15.33 337.57 ZM21.08
								 341.03 L24.17 342.88 L24.17 342.14 L21.08 340.29 L21.08 341.03 ZM26.83 344.5 L29.92 346.34 L29.92
								 345.6 L26.83 343.76 L26.83 344.5 ZM32.57 347.96 L35.67 349.8 L35.67 349.07 L32.57 347.22 L32.57
								 347.96 ZM6.93 331.74 L6.93 332.48 L9.51 330.79 L9.51 330.05 L6.93 331.74 ZM12.68 335.21 L12.68 335.95
								 L15.25 334.25 L15.25 333.51 L12.68 335.21 ZM18.42 338.67 L18.42 339.41 L21 337.72 L21 336.98 L18.42
								 338.67 ZM24.17 342.14 L24.17 342.87 L26.75 341.18 L26.75 340.44 L24.17 342.14 ZM29.92 345.6 L29.92
								 346.34 L32.5 344.64 L32.5 343.91 L29.92 345.6 ZM35.67 349.07 L35.67 349.8 L38.25 348.11 L38.25 347.37
								 L35.67 349.07 ZM38.32 351.42 L41.42 353.27 L41.42 352.53 L38.32 350.69 L38.32 351.42 ZM41.42 352.53
								 L41.42 353.27 L44 351.57 L44 350.84 L41.42 352.53 ZM0 333.22 L3.1 335.06 L3.1 334.33 L0 332.48 L0
								 333.22 ZM5.75 336.69 L8.84 338.53 L8.84 337.79 L5.75 335.95 L5.75 336.69 ZM11.5 340.15 L26.09 348.92
								 L26.09 348.18 L11.5 339.41 L11.5 340.15 ZM28.74 350.54 L31.84 352.38 L31.84 351.65 L28.74 349.8
								 L28.74 350.54 ZM3.09 334.32 L3.09 335.06 L5.67 333.37 L5.67 332.63 L3.09 334.32 ZM8.84 337.79 L8.84
								 338.53 L11.42 336.83 L11.42 336.09 L8.84 337.79 ZM26.09 348.18 L26.09 348.92 L28.67 347.22 L28.67
								 346.49 L26.09 348.18 ZM31.84 351.65 L31.84 352.38 L34.42 350.69 L34.42 349.95 L31.84 351.65 ZM34.49
								 354 L37.59 355.85 L37.59 355.11 L34.49 353.27 L34.49 354 ZM37.59 355.11 L37.59 355.85 L40.16 354.15
								 L40.17 353.42 L37.59 355.11 Z" class="st6"/>
				</g>
			</g>
			<g id="shape41-125" v:mID="41" v:groupContext="shape" transform="translate(101.444,-44.4545)">
				<title>工作表.41</title>
				<path d="M2.67 345.21 L4.9 343.8 L4.9 353 L2.67 354.41 L2.67 345.21 ZM0 346.65 L1.24 345.93 L1.24 355.13 L0 355.85
							 L0 346.65 Z" class="st7"/>
			</g>
			<g id="shape42-127" v:mID="42" v:groupContext="shape" transform="translate(29.8739,-21.9662)">
				<title>工作表.42</title>
				<path d="M44.54 331.72 A79.7046 80.2238 0 0 1 9.48 311.91 L9.48 271.22 A96.5992 97.2285 -180 0 0 44.54 291.39 L44.54
							 331.72 ZM0 331.72 A96.195 96.8216 -180 0 0 41.68 355.85 L41.68 338.54 A96.8002 97.4308 0 0 1 -0 314.44
							 L0 331.72 Z" class="st8"/>
				<path d="M44.54 331.72 A79.7046 80.2238 0 0 1 9.48 311.91 L9.48 271.22 A96.5992 97.2285 -180 0 0 44.54 291.39 L44.54
							 331.72" class="st9"/>
				<path d="M3.04 321.64 A57.2169 56.8466 -90 0 0 12.34 329.2" class="st9"/>
				<path d="M3.04 324.16 A57.2169 56.8466 -90 0 0 12.34 331.72" class="st9"/>
				<path d="M3.04 326.68 A57.2169 56.8466 -90 0 0 12.34 334.24" class="st9"/>
				<path d="M3.04 329.2 A57.2169 56.8466 -90 0 0 12.34 336.76" class="st9"/>
				<path d="M36.67 275.34 L53.13 284.91" class="st9"/>
				<path d="M38.82 274.75 L55.28 284.31" class="st9"/>
				<path d="M40.96 274.15 L57.42 283.71" class="st9"/>
				<path d="M43.11 273.55 L59.57 283.11" class="st9"/>
				<path d="M0 331.72 A96.195 96.8216 -180 0 0 41.68 355.85 L41.68 338.54 A96.8002 97.4308 0 0 1 -0 314.44 L0 331.72"
						class="st9"/>
			</g>
			<g id="shape43-140" v:mID="43" v:groupContext="shape" transform="translate(43.648,-53.359)">
				<title>工作表.43</title>
				<path d="M0 311.62 L0 340.79 A82.4287 81.8952 -90.11 0 0 25.4 355.85" class="st10"/>
			</g>
			<g id="shape44-144" v:mID="44" v:groupContext="shape">
				<title>工作表.44</title>
				<path d="M71.55 333.88 L110.55 311.19 L110.55 293.91 L97.67 286.35 L97.67 262.58 L70.48 246.74 L57.96 250.34 L49.37
							 245.3 L39.35 249.26 L39.35 287.07 L29.87 292.47 L29.87 309.75 A98.4889 97.8515 -90 0 0 71.55 333.88
							 ZM0 326.32 L18.96 312.99 L61.89 337.84 L61.89 344.32 L42.22 355.85 L0 331.36 L0 326.32 Z" class="st11"/>
			</g>
			<g id="group45-146" transform="translate(51.8768,-28.0879)" v:mID="45" v:groupContext="group">
				<title>工作表.45</title>
				<g id="shape46-147" v:mID="46" v:groupContext="shape" transform="translate(3.46742,0)">
					<title>工作表.46</title>
					<path d="M1.18 348.28 L13.35 353.15 A1.41027 1.41946 0 0 1 12.99 355.85 L1.18 351.17 A1.45696 1.46645 0 0 1 1.18
								 348.28 Z" class="st12"/>
				</g>
				<g id="shape47-149" v:mID="47" v:groupContext="shape" transform="translate(8.69305E-14,-5.04142)">
					<title>工作表.47</title>
					<path d="M0 345.04 L17.53 352.25 L17.53 355.85 L0 349.01 L0 345.04 Z" class="st13"/>
				</g>
				<g id="shape48-151" v:mID="48" v:groupContext="shape" transform="translate(8.69305E-14,-5.04142)">
					<title>工作表.48</title>
					<path d="M0 345.04 L17.53 352.25 L17.53 355.85" class="st14"/>
				</g>
				<g id="shape49-154" v:mID="49" v:groupContext="shape" transform="translate(8.69305E-14,-7.20203)">
					<title>工作表.49</title>
					<path d="M0 348.65 L17.53 355.85" class="st14"/>
				</g>
				<g id="shape50-157" v:mID="50" v:groupContext="shape" transform="translate(-8.59313E-14,-5.04142)">
					<title>工作表.50</title>
					<path d="M0 345.04 L0 349.01 L17.53 355.85" class="st15"/>
				</g>
			</g>
			<g id="shape51-160" v:mID="51" v:groupContext="shape" transform="translate(-112.611,-1.87526) rotate(-30)">
				<title>工作表.51</title>
				<ellipse cx="1.19979" cy="354.242" rx="1.19979" ry="1.60493" class="st16"/>
			</g>
			<g id="shape52-163" v:mID="52" v:groupContext="shape" transform="translate(43.648,-53.359)">
				<title>工作表.52</title>
				<path d="M1.08 340.11 L1.08 312.69 L0 311.62 A62.1728 61.7704 -90.48 0 0 25.4 326.74 L25.4 355.85 L25.4 354.55 A78.5389
							 78.0306 91.46 0 1 1.08 340.11 Z" class="st17"/>
			</g>
		</g>
		<g id="shape53-166" v:mID="53" v:groupContext="shape" v:layerMember="0" transform="translate(129.301,-288.908)">
			<title>动态连接线</title>
			<v:userDefs>
				<v:ud v:nameU="visVersion" v:prompt="" v:val="VT0(15):26"/>
			</v:userDefs>
			<path d="M0 362.93 L147.51 362.93" class="st9"/>
		</g>
		<g id="shape54-169" v:mID="54" v:groupContext="shape" transform="translate(25.9551,-194.035)">
			<title>工作表.54</title>
			<desc>Alice</desc>
			<v:textBlock v:margins="rect(4,4,4,4)" v:tabSpace="42.5197"/>
			<v:textRect cx="48.0705" cy="345.847" width="96.15" height="20"/>
			<rect x="0" y="335.847" width="96.1409" height="20" class="st18"/>
			<text x="23.47" y="353.05" class="st19" v:langID="2052"><v:paragraph v:horizAlign="1"/><v:tabList/>Alice</text>		</g>
		<g id="shape55-172" v:mID="55" v:groupContext="shape" transform="translate(254.144,-194.035)">
			<title>工作表.55</title>
			<desc>Bob</desc>
			<v:textBlock v:margins="rect(4,4,4,4)" v:tabSpace="42.5197"/>
			<v:textRect cx="48.0705" cy="345.847" width="96.15" height="20"/>
			<rect x="0" y="335.847" width="96.1409" height="20" class="st18"/>
			<text x="27.6" y="353.05" class="st19" v:langID="2052"><v:paragraph v:horizAlign="1"/><v:tabList/>Bob</text>		</g>
		<g id="shape56-175" v:mID="56" v:groupContext="shape" transform="translate(140.05,-22.4001)">
			<title>工作表.56</title>
			<desc>Charlie</desc>
			<v:textBlock v:margins="rect(4,4,4,4)" v:tabSpace="42.5197"/>
			<v:textRect cx="48.0705" cy="345.847" width="96.15" height="20"/>
			<rect x="0" y="335.847" width="96.1409" height="20" class="st18"/>
			<text x="12.42" y="353.05" class="st19" v:langID="2052"><v:paragraph v:horizAlign="1"/><v:tabList/>Charlie</text>		</g>
		<g id="group57-178" transform="translate(132.844,-63.6599)" v:mID="57" v:groupContext="group">
			<v:custProps>
				<v:cp v:nameU="Manufacturer" v:lbl="制造商" v:type="0" v:sortKey="Equipment" v:invis="false" v:ask="false"
						v:langID="2052"/>
				<v:cp v:nameU="ProductNumber" v:lbl="产品编号" v:type="0" v:sortKey="Equipment" v:invis="false" v:ask="false"
						v:langID="2052"/>
				<v:cp v:nameU="PartNumber" v:lbl="部件号" v:type="0" v:sortKey="Equipment" v:invis="false" v:ask="false"
						v:langID="2052"/>
				<v:cp v:nameU="ProductDescription" v:lbl="产品说明" v:type="0" v:sortKey="Equipment" v:invis="false" v:ask="false"
						v:langID="2052"/>
				<v:cp v:nameU="AssetNumber" v:lbl="资产号" v:type="0" v:sortKey="Asset" v:invis="false" v:ask="false" v:langID="2052"/>
				<v:cp v:nameU="SerialNumber" v:lbl="序列号" v:type="0" v:sortKey="Asset" v:invis="false" v:ask="false" v:langID="2052"/>
				<v:cp v:nameU="Location" v:lbl="位置" v:type="0" v:sortKey="Asset" v:invis="false" v:ask="false" v:langID="2052"/>
				<v:cp v:nameU="Building" v:lbl="建筑物" v:type="0" v:sortKey="Asset" v:invis="false" v:ask="false" v:langID="2052"/>
				<v:cp v:nameU="Room" v:lbl="房间" v:type="0" v:sortKey="Asset" v:invis="false" v:ask="false" v:langID="2052"/>
				<v:cp v:nameU="Department" v:lbl="部门" v:type="0" v:invis="false" v:ask="false" v:langID="2052"/>
				<v:cp v:nameU="NetworkName" v:lbl="网络名称" v:type="0" v:sortKey="Network" v:invis="false" v:ask="false"
						v:langID="2052"/>
				<v:cp v:nameU="IPAddress" v:lbl="IP 地址" v:type="0" v:sortKey="Network" v:invis="false" v:ask="false"
						v:langID="2052"/>
				<v:cp v:nameU="SubnetMask" v:lbl="子网掩码" v:type="0" v:sortKey="Network" v:invis="false" v:ask="false"
						v:langID="2052"/>
				<v:cp v:nameU="AdminInterface" v:lbl="管理接口" v:type="0" v:sortKey="Network" v:invis="false" v:ask="false"
						v:langID="2052"/>
				<v:cp v:nameU="NumberofPorts" v:lbl="端口数目" v:type="0" v:sortKey="Network" v:invis="false" v:ask="false"
						v:langID="2052"/>
				<v:cp v:nameU="CommunityString" v:lbl="团体字符串" v:type="0" v:sortKey="Network" v:invis="false" v:ask="false"
						v:langID="2052"/>
				<v:cp v:nameU="NetworkDescription" v:lbl="网络说明" v:type="0" v:sortKey="Network" v:invis="false" v:ask="false"
						v:langID="2052"/>
				<v:cp v:nameU="CPU" v:lbl="CPU" v:type="0" v:sortKey="Workstation" v:invis="false" v:ask="false" v:langID="2052"/>
				<v:cp v:nameU="Memory" v:lbl="内存" v:type="0" v:sortKey="Workstation" v:invis="false" v:ask="false" v:langID="2052"/>
				<v:cp v:nameU="OperatingSystem" v:lbl="操作系统" v:type="0" v:sortKey="Workstation" v:invis="false" v:ask="false"
						v:langID="2052"/>
				<v:cp v:nameU="BelongsTo" v:lbl="属于" v:type="0" v:invis="true" v:ask="false" v:langID="2052"/>
				<v:cp v:nameU="ShapeClass" v:lbl="ShapeClass" v:type="0" v:invis="true" v:ask="false" v:langID="2052"
						v:val="VT4(设备)"/>
				<v:cp v:nameU="ShapeType" v:lbl="ShapeType" v:type="0" v:invis="true" v:ask="false" v:langID="2052"
						v:val="VT4(计算机)"/>
				<v:cp v:nameU="SubShapeType" v:lbl="SubShapeType" v:type="0" v:invis="true" v:ask="false" v:langID="2052"
						v:val="VT4(桌面)"/>
				<v:cp v:nameU="MACAddress" v:lbl="MAC 地址" v:type="0" v:sortKey="Network" v:invis="false" v:ask="false"
						v:langID="2052"/>
				<v:cp v:nameU="HardDriveSize" v:lbl="硬盘容量" v:type="0" v:sortKey="Workstation" v:invis="false" v:ask="false"
						v:langID="2052"/>
			</v:custProps>
			<v:userDefs>
				<v:ud v:nameU="HasText" v:val="VT0(0):5"/>
				<v:ud v:nameU="ShapeClass" v:val="VT0(5):26"/>
				<v:ud v:nameU="ShapeType" v:val="VT0(6):26"/>
				<v:ud v:nameU="SubShapeType" v:val="VT0(17):26"/>
				<v:ud v:nameU="SolSH" v:val="VT15({BF0433D9-CD73-4EB5-8390-8653BE590246}):41"/>
				<v:ud v:nameU="visLegendShape" v:val="VT0(2):26"/>
				<v:ud v:nameU="visVersion" v:prompt="" v:val="VT0(15):26"/>
			</v:userDefs>
			<title>PC.63</title>
			<g id="shape58-179" v:mID="58" v:groupContext="shape">
				<title>工作表.58</title>
				<path d="M97.67 286.35 L97.67 262.58 L70.48 246.74 L57.96 250.34 L49.37 245.3 L39.35 249.26 L39.35 286.84 L29.87
							 292.47 L29.87 309.75 A96.195 96.8216 -180 0 0 71.55 333.88 L110.55 311.19 L110.55 293.91 L97.67 286.35
							 ZM0 326.32 L0 331.36 L42.22 355.85 L61.89 344.32 L61.89 337.84 L18.96 312.99 L0 326.32 Z" class="st1"/>
			</g>
			<g id="shape59-181" v:mID="59" v:groupContext="shape" transform="translate(42.217,-1.13687E-13)">
				<title>工作表.59</title>
				<path d="M0 355.85 L0 350.85 L19.68 337.84 L19.68 344.32 L0 355.85 Z" class="st2"/>
			</g>
			<g id="shape60-184" v:mID="60" v:groupContext="shape" transform="translate(5.47562E-13,-4.99557)">
				<title>工作表.60</title>
				<path d="M0 331.31 L18.96 317.99 L61.89 342.84 L42.22 355.85 L0 331.31 Z" class="st3"/>
			</g>
			<g id="shape61-187" v:mID="61" v:groupContext="shape" transform="translate(29.8739,-39.2759)">
				<title>工作表.61</title>
				<path d="M41.68 355.85 L80.68 333.19 L38.82 308.7 L0 331.75 A98.3682 99.009 -180 0 0 41.68 355.85 Z" class="st3"/>
			</g>
			<g id="shape62-190" v:mID="62" v:groupContext="shape" transform="translate(74.4163,-46.093)">
				<title>工作表.62</title>
				<path d="M0 355.85 L0 315.52 L8.19 310.72 L7.87 349.01 L0 355.85 Z" class="st2"/>
			</g>
			<g id="shape63-193" v:mID="63" v:groupContext="shape" transform="translate(82.2873,-56.896)">
				<title>工作表.63</title>
				<path d="M0.29 325.3 L15.38 319.48 L15.38 343.24 L0 355.85 L0.29 325.3 Z" class="st2"/>
			</g>
			<g id="shape64-196" v:mID="64" v:groupContext="shape" transform="translate(57.9589,-87.4479)">
				<title>工作表.64</title>
				<path d="M24.62 355.85 L24.65 352.07 L0 337.79 L12.52 334.18 L39.71 350.03 L24.62 355.85 Z" class="st3"/>
			</g>
			<g id="shape65-199" v:mID="65" v:groupContext="shape" transform="translate(71.5542,-21.9662)">
				<title>工作表.65</title>
				<path d="M0 338.54 L39 315.88 L39 333.16 L0 355.85 L0 338.54 Z" class="st2"/>
			</g>
			<g id="shape66-202" v:mID="66" v:groupContext="shape" transform="translate(39.3548,-86.4244)">
				<title>工作表.66</title>
				<path d="M0 335.68 L10.02 331.72 L18.63 336.77 L43.25 351.07 L35.06 355.85 A98.1769 98.8165 0 0 1 0 335.68 Z"
						class="st3"/>
			</g>
			<g id="shape67-205" v:mID="67" v:groupContext="shape">
				<title>工作表.67</title>
				<path d="M0 326.32 L42.22 350.85 L42.22 355.85 L0 331.36 L0 326.32 Z" class="st4"/>
			</g>
			<g id="group68-208" transform="translate(4.59758,-7.56317)" v:mID="68" v:groupContext="group">
				<title>工作表.68</title>
				<g id="shape69-209" v:mID="69" v:groupContext="shape" transform="translate(0,-0.737104)">
					<title>工作表.69</title>
					<path d="M0 333.22 L3.09 335.06 L5.67 333.37 L2.58 331.53 L0 333.22 ZM3.83 330.64 L6.93 332.48 L9.51 330.79 L6.41
								 328.95 L3.83 330.64 ZM7.67 328.06 L10.76 329.9 L13.34 328.21 L10.24 326.37 L7.67 328.06 ZM11.5 325.48
								 L14.59 327.32 L17.17 325.63 L14.08 323.79 L11.5 325.48 ZM17.25 328.95 L20.34 330.79 L22.92 329.09
								 L19.83 327.25 L17.25 328.95 ZM23 332.41 L26.09 334.25 L28.67 332.56 L25.57 330.71 L23 332.41 ZM28.74
								 335.87 L31.84 337.72 L34.42 336.02 L31.32 334.18 L28.74 335.87 ZM40.24 342.8 L43.34 344.64 L45.92
								 342.95 L42.82 341.11 L40.24 342.8 ZM45.99 346.27 L49.08 348.11 L51.66 346.41 L48.57 344.57 L45.99
								 346.27 ZM42.16 348.85 L45.25 350.69 L47.83 348.99 L44.74 347.15 L42.16 348.85 ZM36.41 345.38 L39.5
								 347.22 L42.08 345.53 L38.99 343.69 L36.41 345.38 ZM34.49 339.34 L37.59 341.18 L40.17 339.48 L37.07
								 337.64 L34.49 339.34 ZM30.66 341.92 L33.75 343.76 L36.33 342.06 L33.24 340.22 L30.66 341.92 ZM24.91
								 338.45 L28.01 340.3 L30.59 338.6 L27.49 336.76 L24.91 338.45 ZM19.16 334.99 L22.26 336.83 L24.84
								 335.14 L21.74 333.29 L19.16 334.99 ZM13.41 331.53 L16.51 333.37 L19.09 331.67 L15.99 329.83 L13.41
								 331.53 ZM9.58 334.11 L12.68 335.95 L15.26 334.25 L12.16 332.41 L9.58 334.11 ZM15.33 337.57 L18.42
								 339.41 L21 337.72 L17.91 335.87 L15.33 337.57 ZM21.08 341.03 L24.17 342.88 L26.75 341.18 L23.66
								 339.34 L21.08 341.03 ZM26.83 344.5 L29.92 346.34 L32.5 344.64 L29.41 342.8 L26.83 344.5 ZM32.58
								 347.96 L35.67 349.8 L38.25 348.11 L35.16 346.27 L32.58 347.96 ZM38.32 351.43 L41.42 353.27 L44 351.57
								 L40.9 349.73 L38.32 351.43 ZM34.49 354.01 L37.59 355.85 L40.17 354.15 L37.07 352.31 L34.49 354.01
								 ZM28.74 350.54 L31.84 352.38 L34.42 350.69 L31.32 348.85 L28.74 350.54 ZM11.5 340.15 L26.09 348.92
								 L28.67 347.22 L14.08 338.45 L11.5 340.15 ZM5.75 336.69 L8.84 338.53 L11.42 336.83 L8.33 334.99 L5.75
								 336.69 Z" class="st5"/>
				</g>
				<g id="shape70-211" v:mID="70" v:groupContext="shape" transform="translate(0.00121587,2.27374E-13)">
					<title>工作表.70</title>
					<path d="M11.5 325.48 L14.59 327.32 L14.59 326.59 L11.5 324.74 L11.5 325.48 ZM17.25 328.95 L20.34 330.79 L20.34
								 330.05 L17.25 328.21 L17.25 328.95 ZM23 332.41 L26.09 334.25 L26.09 333.51 L23 331.67 L23 332.41
								 ZM28.74 335.87 L31.84 337.72 L31.84 336.98 L28.74 335.13 L28.74 335.87 ZM34.49 339.34 L37.59 341.18
								 L37.59 340.44 L34.49 338.6 L34.49 339.34 ZM40.24 342.8 L43.34 344.64 L43.34 343.91 L40.24 342.06
								 L40.24 342.8 ZM14.59 326.58 L14.59 327.32 L17.17 325.63 L17.17 324.89 L14.59 326.58 ZM20.34 330.05
								 L20.34 330.79 L22.92 329.09 L22.92 328.35 L20.34 330.05 ZM26.09 333.51 L26.09 334.25 L28.67 332.56
								 L28.67 331.82 L26.09 333.51 ZM31.84 336.98 L31.84 337.71 L34.42 336.02 L34.42 335.28 L31.84 336.98
								 ZM37.59 340.44 L37.59 341.18 L40.17 339.48 L40.17 338.75 L37.59 340.44 ZM43.34 343.91 L43.34 344.64
								 L45.91 342.95 L45.91 342.21 L43.34 343.91 ZM45.99 346.26 L49.08 348.11 L49.08 347.37 L45.99 345.53
								 L45.99 346.26 ZM49.08 347.37 L49.08 348.11 L51.66 346.41 L51.66 345.68 L49.08 347.37 ZM7.67 328.06
								 L10.76 329.9 L10.76 329.17 L7.67 327.32 L7.67 328.06 ZM13.41 331.53 L16.51 333.37 L16.51 332.63
								 L13.41 330.79 L13.41 331.53 ZM19.16 334.99 L22.26 336.83 L22.26 336.09 L19.16 334.25 L19.16 334.99
								 ZM24.91 338.45 L28.01 340.3 L28.01 339.56 L24.91 337.71 L24.91 338.45 ZM30.66 341.92 L33.75 343.76
								 L33.75 343.02 L30.66 341.18 L30.66 341.92 ZM36.41 345.38 L39.5 347.22 L39.5 346.49 L36.41 344.64
								 L36.41 345.38 ZM10.76 329.16 L10.76 329.9 L13.34 328.21 L13.34 327.47 L10.76 329.16 ZM16.51 332.63
								 L16.51 333.37 L19.09 331.67 L19.09 330.93 L16.51 332.63 ZM22.26 336.09 L22.26 336.83 L24.84 335.14
								 L24.84 334.4 L22.26 336.09 ZM28.01 339.56 L28.01 340.29 L30.58 338.6 L30.58 337.86 L28.01 339.56
								 ZM33.75 343.02 L33.75 343.76 L36.33 342.06 L36.33 341.33 L33.75 343.02 ZM39.5 346.49 L39.5 347.22
								 L42.08 345.53 L42.08 344.79 L39.5 346.49 ZM42.16 348.84 L45.25 350.69 L45.25 349.95 L42.16 348.11
								 L42.16 348.84 ZM45.25 349.95 L45.25 350.69 L47.83 348.99 L47.83 348.26 L45.25 349.95 ZM3.83 330.64
								 L6.93 332.48 L6.93 331.75 L3.83 329.9 L3.83 330.64 ZM9.58 334.11 L12.68 335.95 L12.68 335.21 L9.58
								 333.37 L9.58 334.11 ZM15.33 337.57 L18.43 339.41 L18.42 338.67 L15.33 336.83 L15.33 337.57 ZM21.08
								 341.03 L24.17 342.88 L24.17 342.14 L21.08 340.29 L21.08 341.03 ZM26.83 344.5 L29.92 346.34 L29.92
								 345.6 L26.83 343.76 L26.83 344.5 ZM32.57 347.96 L35.67 349.8 L35.67 349.07 L32.57 347.22 L32.57
								 347.96 ZM6.93 331.74 L6.93 332.48 L9.51 330.79 L9.51 330.05 L6.93 331.74 ZM12.68 335.21 L12.68 335.95
								 L15.25 334.25 L15.25 333.51 L12.68 335.21 ZM18.42 338.67 L18.42 339.41 L21 337.72 L21 336.98 L18.42
								 338.67 ZM24.17 342.14 L24.17 342.87 L26.75 341.18 L26.75 340.44 L24.17 342.14 ZM29.92 345.6 L29.92
								 346.34 L32.5 344.64 L32.5 343.91 L29.92 345.6 ZM35.67 349.07 L35.67 349.8 L38.25 348.11 L38.25 347.37
								 L35.67 349.07 ZM38.32 351.42 L41.42 353.27 L41.42 352.53 L38.32 350.69 L38.32 351.42 ZM41.42 352.53
								 L41.42 353.27 L44 351.57 L44 350.84 L41.42 352.53 ZM0 333.22 L3.1 335.06 L3.1 334.33 L0 332.48 L0
								 333.22 ZM5.75 336.69 L8.84 338.53 L8.84 337.79 L5.75 335.95 L5.75 336.69 ZM11.5 340.15 L26.09 348.92
								 L26.09 348.18 L11.5 339.41 L11.5 340.15 ZM28.74 350.54 L31.84 352.38 L31.84 351.65 L28.74 349.8
								 L28.74 350.54 ZM3.09 334.32 L3.09 335.06 L5.67 333.37 L5.67 332.63 L3.09 334.32 ZM8.84 337.79 L8.84
								 338.53 L11.42 336.83 L11.42 336.09 L8.84 337.79 ZM26.09 348.18 L26.09 348.92 L28.67 347.22 L28.67
								 346.49 L26.09 348.18 ZM31.84 351.65 L31.84 352.38 L34.42 350.69 L34.42 349.95 L31.84 351.65 ZM34.49
								 354 L37.59 355.85 L37.59 355.11 L34.49 353.27 L34.49 354 ZM37.59 355.11 L37.59 355.85 L40.16 354.15
								 L40.17 353.42 L37.59 355.11 Z" class="st6"/>
				</g>
			</g>
			<g id="shape71-213" v:mID="71" v:groupContext="shape" transform="translate(101.444,-44.4545)">
				<title>工作表.71</title>
				<path d="M2.67 345.21 L4.9 343.8 L4.9 353 L2.67 354.41 L2.67 345.21 ZM0 346.65 L1.24 345.93 L1.24 355.13 L0 355.85
							 L0 346.65 Z" class="st7"/>
			</g>
			<g id="shape72-215" v:mID="72" v:groupContext="shape" transform="translate(29.8739,-21.9662)">
				<title>工作表.72</title>
				<path d="M44.54 331.72 A79.7046 80.2238 0 0 1 9.48 311.91 L9.48 271.22 A96.5992 97.2285 -180 0 0 44.54 291.39 L44.54
							 331.72 ZM0 331.72 A96.195 96.8216 -180 0 0 41.68 355.85 L41.68 338.54 A96.8002 97.4308 0 0 1 0 314.44
							 L0 331.72 Z" class="st8"/>
				<path d="M44.54 331.72 A79.7046 80.2238 0 0 1 9.48 311.91 L9.48 271.22 A96.5992 97.2285 -180 0 0 44.54 291.39 L44.54
							 331.72" class="st9"/>
				<path d="M3.04 321.64 A57.2169 56.8466 -90 0 0 12.34 329.2" class="st9"/>
				<path d="M3.04 324.16 A57.2169 56.8466 -90 0 0 12.34 331.72" class="st9"/>
				<path d="M3.04 326.68 A57.2169 56.8466 -90 0 0 12.34 334.24" class="st9"/>
				<path d="M3.04 329.2 A57.2169 56.8466 -90 0 0 12.34 336.76" class="st9"/>
				<path d="M36.67 275.34 L53.13 284.91" class="st9"/>
				<path d="M38.82 274.75 L55.28 284.31" class="st9"/>
				<path d="M40.96 274.15 L57.42 283.71" class="st9"/>
				<path d="M43.11 273.55 L59.57 283.11" class="st9"/>
				<path d="M0 331.72 A96.195 96.8216 -180 0 0 41.68 355.85 L41.68 338.54 A96.8002 97.4308 0 0 1 0 314.44 L0 331.72"
						class="st9"/>
			</g>
			<g id="shape73-228" v:mID="73" v:groupContext="shape" transform="translate(43.648,-53.359)">
				<title>工作表.73</title>
				<path d="M0 311.62 L0 340.79 A82.4287 81.8952 -90.11 0 0 25.4 355.85" class="st10"/>
			</g>
			<g id="shape74-232" v:mID="74" v:groupContext="shape">
				<title>工作表.74</title>
				<path d="M71.55 333.88 L110.55 311.19 L110.55 293.91 L97.67 286.35 L97.67 262.58 L70.48 246.74 L57.96 250.34 L49.37
							 245.3 L39.35 249.26 L39.35 287.07 L29.87 292.47 L29.87 309.75 A98.4889 97.8515 -90 0 0 71.55 333.88
							 ZM0 326.32 L18.96 312.99 L61.89 337.84 L61.89 344.32 L42.22 355.85 L0 331.36 L0 326.32 Z" class="st11"/>
			</g>
			<g id="group75-234" transform="translate(51.8768,-28.0879)" v:mID="75" v:groupContext="group">
				<title>工作表.75</title>
				<g id="shape76-235" v:mID="76" v:groupContext="shape" transform="translate(3.46742,0)">
					<title>工作表.76</title>
					<path d="M1.18 348.28 L13.35 353.15 A1.41027 1.41946 0 0 1 12.99 355.85 L1.18 351.17 A1.45696 1.46645 0 0 1 1.18
								 348.28 Z" class="st12"/>
				</g>
				<g id="shape77-237" v:mID="77" v:groupContext="shape" transform="translate(9.29257E-14,-5.04142)">
					<title>工作表.77</title>
					<path d="M0 345.04 L17.53 352.25 L17.53 355.85 L0 349.01 L0 345.04 Z" class="st13"/>
				</g>
				<g id="shape78-239" v:mID="78" v:groupContext="shape" transform="translate(9.29257E-14,-5.04142)">
					<title>工作表.78</title>
					<path d="M0 345.04 L17.53 352.25 L17.53 355.85" class="st14"/>
				</g>
				<g id="shape79-242" v:mID="79" v:groupContext="shape" transform="translate(9.29257E-14,-7.20203)">
					<title>工作表.79</title>
					<path d="M0 348.65 L17.53 355.85" class="st14"/>
				</g>
				<g id="shape80-245" v:mID="80" v:groupContext="shape" transform="translate(-8.69305E-14,-5.04142)">
					<title>工作表.80</title>
					<path d="M0 345.04 L0 349.01 L17.53 355.85" class="st15"/>
				</g>
			</g>
			<g id="shape81-248" v:mID="81" v:groupContext="shape" transform="translate(-112.611,-1.87526) rotate(-30)">
				<title>工作表.81</title>
				<ellipse cx="1.19979" cy="354.242" rx="1.19979" ry="1.60493" class="st16"/>
			</g>
			<g id="shape82-251" v:mID="82" v:groupContext="shape" transform="translate(43.648,-53.359)">
				<title>工作表.82</title>
				<path d="M1.08 340.11 L1.08 312.69 L0 311.62 A62.1728 61.7704 -90.48 0 0 25.4 326.74 L25.4 355.85 L25.4 354.55 A78.5389
							 78.0306 91.46 0 1 1.08 340.11 Z" class="st17"/>
			</g>
		</g>
		<g id="shape83-254" v:mID="83" v:groupContext="shape" v:layerMember="0" transform="translate(193.193,-281.799)">
			<title>动态连接线.89</title>
			<v:userDefs>
				<v:ud v:nameU="visVersion" v:prompt="" v:val="VT0(15):26"/>
			</v:userDefs>
			<path d="M5.94 355.85 L8.23 465.42" class="st9"/>
		</g>
	</g>
</svg>
